# xmcd CD database file
#
# Track frame offsets:
#	150
#	25381
#	48339
#	66555
#	84184
#	104955
#	127618
#	150154
#	168838
#
# Disc length: 2642 seconds
#
# Revision: 0
# Processed by: cddbd v1.5.2PL0 Copyright (c) Steve Scherf et al.
# Submitted via: CDex 1.70beta2
#
DISCID=680a5009
DTITLE=Albert Collins, Robert Cray, Johnny Copeland - Showdown
DYEAR=1900
DGENRE=Blues
TTITLE0=T-Bone Shuffle
TTITLE1=The Moon Is Full
TTITLE2=Lion's Den
TTITLE3=She's Into Something
TTITLE4=Bring Your Fine Self Home
TTITLE5=Black Cat Bone
TTITLE6=The Dream
TTITLE7=Albert's Alley
TTITLE8=Blackjack
EXTD=
EXTT0=
EXTT1=
EXTT2=
EXTT3=
EXTT4=
EXTT5=
EXTT6=
EXTT7=
EXTT8=
PLAYORDER=
